<!-- Generated by IcoMoon.io -->
<svg version="1.1" xmlns="http://www.w3.org/2000/svg" width="512" height="512" viewBox="0 0 512 512">
<title></title>
<g id="icomoon-ignore">
    <line stroke-width="1" x1="16" y1="0" x2="16" y2="512" stroke="#449FDB" opacity="0.3"></line>
    <line stroke-width="1" x1="32" y1="0" x2="32" y2="512" stroke="#449FDB" opacity="1"></line>
    <line stroke-width="1" x1="48" y1="0" x2="48" y2="512" stroke="#449FDB" opacity="0.3"></line>
    <line stroke-width="1" x1="64" y1="0" x2="64" y2="512" stroke="#449FDB" opacity="1"></line>
    <line stroke-width="1" x1="80" y1="0" x2="80" y2="512" stroke="#449FDB" opacity="0.3"></line>
    <line stroke-width="1" x1="96" y1="0" x2="96" y2="512" stroke="#449FDB" opacity="1"></line>
    <line stroke-width="1" x1="112" y1="0" x2="112" y2="512" stroke="#449FDB" opacity="0.3"></line>
    <line stroke-width="1" x1="128" y1="0" x2="128" y2="512" stroke="#449FDB" opacity="1"></line>
    <line stroke-width="1" x1="144" y1="0" x2="144" y2="512" stroke="#449FDB" opacity="0.3"></line>
    <line stroke-width="1" x1="160" y1="0" x2="160" y2="512" stroke="#449FDB" opacity="1"></line>
    <line stroke-width="1" x1="176" y1="0" x2="176" y2="512" stroke="#449FDB" opacity="0.3"></line>
    <line stroke-width="1" x1="192" y1="0" x2="192" y2="512" stroke="#449FDB" opacity="1"></line>
    <line stroke-width="1" x1="208" y1="0" x2="208" y2="512" stroke="#449FDB" opacity="0.3"></line>
    <line stroke-width="1" x1="224" y1="0" x2="224" y2="512" stroke="#449FDB" opacity="1"></line>
    <line stroke-width="1" x1="240" y1="0" x2="240" y2="512" stroke="#449FDB" opacity="0.3"></line>
    <line stroke-width="1" x1="256" y1="0" x2="256" y2="512" stroke="#449FDB" opacity="1"></line>
    <line stroke-width="1" x1="272" y1="0" x2="272" y2="512" stroke="#449FDB" opacity="0.3"></line>
    <line stroke-width="1" x1="288" y1="0" x2="288" y2="512" stroke="#449FDB" opacity="1"></line>
    <line stroke-width="1" x1="304" y1="0" x2="304" y2="512" stroke="#449FDB" opacity="0.3"></line>
    <line stroke-width="1" x1="320" y1="0" x2="320" y2="512" stroke="#449FDB" opacity="1"></line>
    <line stroke-width="1" x1="336" y1="0" x2="336" y2="512" stroke="#449FDB" opacity="0.3"></line>
    <line stroke-width="1" x1="352" y1="0" x2="352" y2="512" stroke="#449FDB" opacity="1"></line>
    <line stroke-width="1" x1="368" y1="0" x2="368" y2="512" stroke="#449FDB" opacity="0.3"></line>
    <line stroke-width="1" x1="384" y1="0" x2="384" y2="512" stroke="#449FDB" opacity="1"></line>
    <line stroke-width="1" x1="400" y1="0" x2="400" y2="512" stroke="#449FDB" opacity="0.3"></line>
    <line stroke-width="1" x1="416" y1="0" x2="416" y2="512" stroke="#449FDB" opacity="1"></line>
    <line stroke-width="1" x1="432" y1="0" x2="432" y2="512" stroke="#449FDB" opacity="0.3"></line>
    <line stroke-width="1" x1="448" y1="0" x2="448" y2="512" stroke="#449FDB" opacity="1"></line>
    <line stroke-width="1" x1="464" y1="0" x2="464" y2="512" stroke="#449FDB" opacity="0.3"></line>
    <line stroke-width="1" x1="480" y1="0" x2="480" y2="512" stroke="#449FDB" opacity="1"></line>
    <line stroke-width="1" x1="496" y1="0" x2="496" y2="512" stroke="#449FDB" opacity="0.3"></line>
    <line stroke-width="1" x1="0" y1="16" x2="512" y2="16" stroke="#449FDB" opacity="0.3"></line>
    <line stroke-width="1" x1="0" y1="32" x2="512" y2="32" stroke="#449FDB" opacity="1"></line>
    <line stroke-width="1" x1="0" y1="48" x2="512" y2="48" stroke="#449FDB" opacity="0.3"></line>
    <line stroke-width="1" x1="0" y1="64" x2="512" y2="64" stroke="#449FDB" opacity="1"></line>
    <line stroke-width="1" x1="0" y1="80" x2="512" y2="80" stroke="#449FDB" opacity="0.3"></line>
    <line stroke-width="1" x1="0" y1="96" x2="512" y2="96" stroke="#449FDB" opacity="1"></line>
    <line stroke-width="1" x1="0" y1="112" x2="512" y2="112" stroke="#449FDB" opacity="0.3"></line>
    <line stroke-width="1" x1="0" y1="128" x2="512" y2="128" stroke="#449FDB" opacity="1"></line>
    <line stroke-width="1" x1="0" y1="144" x2="512" y2="144" stroke="#449FDB" opacity="0.3"></line>
    <line stroke-width="1" x1="0" y1="160" x2="512" y2="160" stroke="#449FDB" opacity="1"></line>
    <line stroke-width="1" x1="0" y1="176" x2="512" y2="176" stroke="#449FDB" opacity="0.3"></line>
    <line stroke-width="1" x1="0" y1="192" x2="512" y2="192" stroke="#449FDB" opacity="1"></line>
    <line stroke-width="1" x1="0" y1="208" x2="512" y2="208" stroke="#449FDB" opacity="0.3"></line>
    <line stroke-width="1" x1="0" y1="224" x2="512" y2="224" stroke="#449FDB" opacity="1"></line>
    <line stroke-width="1" x1="0" y1="240" x2="512" y2="240" stroke="#449FDB" opacity="0.3"></line>
    <line stroke-width="1" x1="0" y1="256" x2="512" y2="256" stroke="#449FDB" opacity="1"></line>
    <line stroke-width="1" x1="0" y1="272" x2="512" y2="272" stroke="#449FDB" opacity="0.3"></line>
    <line stroke-width="1" x1="0" y1="288" x2="512" y2="288" stroke="#449FDB" opacity="1"></line>
    <line stroke-width="1" x1="0" y1="304" x2="512" y2="304" stroke="#449FDB" opacity="0.3"></line>
    <line stroke-width="1" x1="0" y1="320" x2="512" y2="320" stroke="#449FDB" opacity="1"></line>
    <line stroke-width="1" x1="0" y1="336" x2="512" y2="336" stroke="#449FDB" opacity="0.3"></line>
    <line stroke-width="1" x1="0" y1="352" x2="512" y2="352" stroke="#449FDB" opacity="1"></line>
    <line stroke-width="1" x1="0" y1="368" x2="512" y2="368" stroke="#449FDB" opacity="0.3"></line>
    <line stroke-width="1" x1="0" y1="384" x2="512" y2="384" stroke="#449FDB" opacity="1"></line>
    <line stroke-width="1" x1="0" y1="400" x2="512" y2="400" stroke="#449FDB" opacity="0.3"></line>
    <line stroke-width="1" x1="0" y1="416" x2="512" y2="416" stroke="#449FDB" opacity="1"></line>
    <line stroke-width="1" x1="0" y1="432" x2="512" y2="432" stroke="#449FDB" opacity="0.3"></line>
    <line stroke-width="1" x1="0" y1="448" x2="512" y2="448" stroke="#449FDB" opacity="1"></line>
    <line stroke-width="1" x1="0" y1="464" x2="512" y2="464" stroke="#449FDB" opacity="0.3"></line>
    <line stroke-width="1" x1="0" y1="480" x2="512" y2="480" stroke="#449FDB" opacity="1"></line>
    <line stroke-width="1" x1="0" y1="496" x2="512" y2="496" stroke="#449FDB" opacity="0.3"></line>
</g>
<path fill="#000" d="M419.676 217.006l-18.063-2.948c-3.115-10.937-7.494-21.463-12.986-31.417l10.692-14.828c7.086-9.831 5.98-23.183-2.58-31.743l-20.849-20.849c-8.56-8.56-21.914-9.626-31.743-2.54l-14.829 10.692c-9.954-5.528-20.48-9.871-31.417-13.026l-2.909-18.063c-1.966-11.92-12.166-20.603-24.288-20.603h-29.452c-12.123 0-22.323 8.683-24.249 20.603l-2.948 18.063c-10.937 3.154-21.463 7.494-31.417 13.026l-14.828-10.692c-9.831-7.085-23.183-6.020-31.743 2.54l-20.849 20.848c-8.56 8.56-9.626 21.915-2.54 31.743l10.649 14.828c-5.489 9.954-9.871 20.48-12.986 31.417l-18.063 2.948c-11.957 1.925-20.6 12.125-20.6 24.249v29.491c0 12.083 8.642 22.283 20.603 24.248l18.063 2.949c3.115 10.937 7.494 21.423 12.986 31.375l-10.692 14.868c-7.046 9.788-5.98 23.143 2.58 31.703l20.848 20.849c8.56 8.56 21.915 9.625 31.743 2.58l14.828-10.692c9.954 5.529 20.48 9.872 31.417 13.026l2.948 18.023c1.925 11.962 12.125 20.646 24.249 20.646h29.452c12.123 0 22.323-8.683 24.288-20.643l2.909-18.023c10.937-3.154 21.463-7.494 31.417-13.026l14.829 10.692c9.831 7.086 23.183 5.98 31.743-2.58l20.849-20.849c8.56-8.56 9.625-21.914 2.58-31.743l-10.692-14.829c5.488-9.911 9.872-20.44 12.986-31.375l18.063-2.949c11.961-1.969 20.643-12.169 20.643-24.251v-29.491c0-12.123-8.683-22.323-20.643-24.249zM423.936 270.746c0 4.014-2.909 7.414-6.88 8.068l-23.266 3.808c-3.237 0.491-5.857 2.909-6.635 6.103-3.237 12.986-8.397 25.394-15.277 36.863-1.72 2.825-1.557 6.349 0.368 9.011l13.762 19.128c2.375 3.277 2.005 7.743-0.86 10.608l-20.849 20.808c-2.825 2.868-7.291 3.237-10.568 0.86l-19.128-13.762c-2.663-1.925-6.185-2.048-9.011-0.368-11.469 6.88-23.88 12.043-36.906 15.277-3.154 0.777-5.572 3.4-6.103 6.635l-3.769 23.266c-0.657 3.977-4.057 6.885-8.111 6.885h-29.452c-4.054 0-7.454-2.909-8.112-6.88l-3.768-23.266c-0.531-3.237-2.948-5.857-6.103-6.635-13.026-3.237-25.437-8.397-36.906-15.277-1.268-0.783-2.743-1.192-4.217-1.192-1.68 0-3.36 0.531-4.792 1.557l-19.129 13.762c-3.277 2.375-7.7 2.005-10.569-0.86l-20.849-20.808c-2.868-2.868-3.195-7.331-0.86-10.608l13.763-19.128c1.925-2.663 2.089-6.185 0.369-9.011-6.88-11.469-12.043-23.88-15.237-36.863-0.82-3.195-3.4-5.611-6.635-6.103l-23.266-3.808c-4.014-0.657-6.883-4.057-6.883-8.072v-29.491c0-4.054 2.868-7.454 6.84-8.069l23.305-3.809c3.237-0.531 5.817-2.909 6.635-6.103 3.194-13.026 8.358-25.437 15.237-36.863 1.72-2.826 1.557-6.388-0.369-9.011l-13.763-19.168c-2.335-3.277-2.005-7.7 0.86-10.569l20.849-20.849c2.869-2.826 7.292-3.195 10.569-0.86l19.129 13.803c2.663 1.883 6.226 2.048 9.011 0.369 11.469-6.923 23.88-12.043 36.905-15.278 3.155-0.82 5.572-3.4 6.103-6.635l3.768-23.266c0.657-4.017 4.057-6.886 8.112-6.886h29.452c4.055 0 7.454 2.868 8.111 6.88l3.769 23.266c0.531 3.237 2.949 5.817 6.103 6.635 13.026 3.237 25.437 8.357 36.906 15.278 2.825 1.68 6.349 1.514 9.011-0.369l19.128-13.803c3.277-2.335 7.743-1.966 10.569 0.86l20.849 20.849c2.868 2.869 3.237 7.292 0.86 10.569l-13.762 19.168c-1.925 2.623-2.089 6.185-0.368 9.011 6.88 11.428 12.043 23.84 15.277 36.863 0.777 3.195 3.4 5.572 6.635 6.103l23.266 3.809c3.971 0.62 6.88 4.020 6.88 8.074z"></path>
<path fill="#000" d="M255.997 145.406c-60.988 0-110.592 49.602-110.592 110.592s49.602 110.592 110.592 110.592c60.949 0 110.592-49.603 110.592-110.592s-49.643-110.592-110.592-110.592zM288.765 255.998c0 18.063-14.706 32.769-32.769 32.769s-32.769-14.705-32.769-32.769 14.706-32.769 32.769-32.769 32.769 14.706 32.769 32.769zM161.79 255.998c0-49.195 37.888-89.666 86.016-93.843v45.425c-23.226 3.931-40.96 24.083-40.96 48.414 0 5.611 0.983 10.978 2.703 15.974l-39.854 21.748c-5.080-11.548-7.906-24.329-7.906-37.722zM255.998 350.206c-32.686 0-61.563-16.751-78.439-42.106l39.854-21.748c9.008 11.425 22.937 18.797 38.583 18.797 15.606 0 29.532-7.372 38.542-18.8l39.894 21.748c-16.914 25.354-45.752 42.108-78.439 42.108zM342.262 293.72l-39.854-21.748c1.76-4.997 2.743-10.363 2.743-15.975 0-24.332-17.777-44.482-40.96-48.414v-45.425c48.129 4.177 86.016 44.645 86.016 93.842 0 13.394-2.868 26.174-7.945 37.722z"></path>
<path fill="#000" d="M264.189 255.998c0 4.526-3.666 8.192-8.191 8.192s-8.191-3.666-8.191-8.191 3.666-8.191 8.191-8.191 8.191 3.666 8.191 8.191z"></path>
</svg>
